<mxfile host="app.diagrams.net" modified="2022-11-07T04:14:37.190Z" agent="5.0 (Macintosh; Intel Mac OS X 10_15_7) AppleWebKit/537.36 (KHTML, like Gecko) Chrome/106.0.0.0 Safari/537.36" etag="xRg7R3IjstESd_Nq6zCq" version="20.3.0" type="github">
  <diagram id="Xy2sPwQJUujVnnNuimXJ" name="第 1 页">
    <mxGraphModel dx="1845" dy="552" grid="1" gridSize="10" guides="1" tooltips="1" connect="1" arrows="1" fold="1" page="1" pageScale="1" pageWidth="827" pageHeight="1169" math="0" shadow="0">
      <root>
        <mxCell id="0" />
        <mxCell id="1" parent="0" />
        <mxCell id="zmoeTlc3mtS_28tVicmO-27" value="" style="rounded=1;whiteSpace=wrap;html=1;" vertex="1" parent="1">
          <mxGeometry x="160" y="160" width="530" height="430" as="geometry" />
        </mxCell>
        <mxCell id="zmoeTlc3mtS_28tVicmO-9" value="" style="rounded=1;whiteSpace=wrap;html=1;" vertex="1" parent="1">
          <mxGeometry x="190" y="200" width="180" height="370" as="geometry" />
        </mxCell>
        <mxCell id="zmoeTlc3mtS_28tVicmO-7" style="edgeStyle=orthogonalEdgeStyle;rounded=0;orthogonalLoop=1;jettySize=auto;html=1;exitX=0.5;exitY=1;exitDx=0;exitDy=0;" edge="1" parent="1" source="zmoeTlc3mtS_28tVicmO-2" target="zmoeTlc3mtS_28tVicmO-4">
          <mxGeometry relative="1" as="geometry" />
        </mxCell>
        <mxCell id="zmoeTlc3mtS_28tVicmO-2" value="biz valid" style="shape=process;whiteSpace=wrap;html=1;backgroundOutline=1;" vertex="1" parent="1">
          <mxGeometry x="220" y="240" width="120" height="60" as="geometry" />
        </mxCell>
        <mxCell id="zmoeTlc3mtS_28tVicmO-3" value="" style="endArrow=none;dashed=1;html=1;dashPattern=1 3;strokeWidth=2;rounded=0;" edge="1" parent="1">
          <mxGeometry width="50" height="50" relative="1" as="geometry">
            <mxPoint x="120" y="540" as="sourcePoint" />
            <mxPoint x="120" y="160" as="targetPoint" />
          </mxGeometry>
        </mxCell>
        <mxCell id="zmoeTlc3mtS_28tVicmO-8" style="edgeStyle=orthogonalEdgeStyle;rounded=0;orthogonalLoop=1;jettySize=auto;html=1;exitX=0.5;exitY=1;exitDx=0;exitDy=0;" edge="1" parent="1" source="zmoeTlc3mtS_28tVicmO-4" target="zmoeTlc3mtS_28tVicmO-5">
          <mxGeometry relative="1" as="geometry" />
        </mxCell>
        <mxCell id="zmoeTlc3mtS_28tVicmO-4" value="biz assembly" style="shape=process;whiteSpace=wrap;html=1;backgroundOutline=1;" vertex="1" parent="1">
          <mxGeometry x="220" y="360" width="120" height="60" as="geometry" />
        </mxCell>
        <mxCell id="zmoeTlc3mtS_28tVicmO-5" value="biz handler" style="shape=process;whiteSpace=wrap;html=1;backgroundOutline=1;" vertex="1" parent="1">
          <mxGeometry x="220" y="480" width="120" height="60" as="geometry" />
        </mxCell>
        <mxCell id="zmoeTlc3mtS_28tVicmO-10" value="biz node1" style="text;html=1;align=center;verticalAlign=middle;resizable=0;points=[];autosize=1;strokeColor=none;fillColor=none;" vertex="1" parent="1">
          <mxGeometry x="240" y="200" width="80" height="30" as="geometry" />
        </mxCell>
        <mxCell id="zmoeTlc3mtS_28tVicmO-11" value="" style="rounded=1;whiteSpace=wrap;html=1;" vertex="1" parent="1">
          <mxGeometry x="480" y="200" width="180" height="370" as="geometry" />
        </mxCell>
        <mxCell id="zmoeTlc3mtS_28tVicmO-12" style="edgeStyle=orthogonalEdgeStyle;rounded=0;orthogonalLoop=1;jettySize=auto;html=1;exitX=0.5;exitY=1;exitDx=0;exitDy=0;" edge="1" parent="1" source="zmoeTlc3mtS_28tVicmO-13" target="zmoeTlc3mtS_28tVicmO-15">
          <mxGeometry relative="1" as="geometry" />
        </mxCell>
        <mxCell id="zmoeTlc3mtS_28tVicmO-13" value="biz valid" style="shape=process;whiteSpace=wrap;html=1;backgroundOutline=1;" vertex="1" parent="1">
          <mxGeometry x="510" y="240" width="120" height="60" as="geometry" />
        </mxCell>
        <mxCell id="zmoeTlc3mtS_28tVicmO-14" style="edgeStyle=orthogonalEdgeStyle;rounded=0;orthogonalLoop=1;jettySize=auto;html=1;exitX=0.5;exitY=1;exitDx=0;exitDy=0;" edge="1" parent="1" source="zmoeTlc3mtS_28tVicmO-15" target="zmoeTlc3mtS_28tVicmO-16">
          <mxGeometry relative="1" as="geometry" />
        </mxCell>
        <mxCell id="zmoeTlc3mtS_28tVicmO-15" value="biz assembly" style="shape=process;whiteSpace=wrap;html=1;backgroundOutline=1;" vertex="1" parent="1">
          <mxGeometry x="510" y="360" width="120" height="60" as="geometry" />
        </mxCell>
        <mxCell id="zmoeTlc3mtS_28tVicmO-16" value="biz handler" style="shape=process;whiteSpace=wrap;html=1;backgroundOutline=1;" vertex="1" parent="1">
          <mxGeometry x="510" y="480" width="120" height="60" as="geometry" />
        </mxCell>
        <mxCell id="zmoeTlc3mtS_28tVicmO-17" value="biz node n" style="text;html=1;align=center;verticalAlign=middle;resizable=0;points=[];autosize=1;strokeColor=none;fillColor=none;" vertex="1" parent="1">
          <mxGeometry x="530" y="200" width="80" height="30" as="geometry" />
        </mxCell>
        <mxCell id="zmoeTlc3mtS_28tVicmO-25" value=".............." style="text;html=1;align=center;verticalAlign=middle;resizable=0;points=[];autosize=1;strokeColor=none;fillColor=none;" vertex="1" parent="1">
          <mxGeometry x="390" y="360" width="70" height="30" as="geometry" />
        </mxCell>
        <mxCell id="zmoeTlc3mtS_28tVicmO-28" value="biz flow" style="text;html=1;align=center;verticalAlign=middle;resizable=0;points=[];autosize=1;strokeColor=none;fillColor=none;" vertex="1" parent="1">
          <mxGeometry x="395" y="160" width="60" height="30" as="geometry" />
        </mxCell>
        <mxCell id="zmoeTlc3mtS_28tVicmO-29" value="Actor" style="shape=umlActor;verticalLabelPosition=bottom;verticalAlign=top;html=1;outlineConnect=0;" vertex="1" parent="1">
          <mxGeometry x="-30" y="290" width="30" height="60" as="geometry" />
        </mxCell>
        <mxCell id="zmoeTlc3mtS_28tVicmO-30" value="" style="shape=flexArrow;endArrow=classic;html=1;rounded=0;" edge="1" parent="1">
          <mxGeometry width="50" height="50" relative="1" as="geometry">
            <mxPoint x="10" y="330" as="sourcePoint" />
            <mxPoint x="110" y="330" as="targetPoint" />
          </mxGeometry>
        </mxCell>
        <mxCell id="zmoeTlc3mtS_28tVicmO-31" value="biz act" style="text;html=1;align=center;verticalAlign=middle;resizable=0;points=[];autosize=1;strokeColor=none;fillColor=none;" vertex="1" parent="1">
          <mxGeometry x="20" y="290" width="60" height="30" as="geometry" />
        </mxCell>
      </root>
    </mxGraphModel>
  </diagram>
</mxfile>
